<svg width="448" height="224" viewBox="0 0 448 224" fill="none" xmlns="http://www.w3.org/2000/svg">
<path d="M54 58C24.1714 58 0 82.1714 0 112C0 141.829 24.1714 166 54 166C83.8286 166 108 141.829 108 112C108 82.1714 83.8286 58 54 58Z" fill="#0891b2"/>
<path d="M54 -2.36041e-06L108 25.732L108 48L54 22.268L0 48L-9.73367e-07 25.732L54 -2.36041e-06Z" fill="#0891b2"/>
<path d="M54 224L-8.60276e-06 198.268L-7.62939e-06 176L54 201.732L108 176L108 198.268L54 224Z" fill="#0891b2"/>
<path d="M214 58C184.171 58 160 82.1714 160 112C160 141.829 184.171 166 214 166C243.829 166 268 141.829 268 112C268 82.1714 243.829 58 214 58ZM214 145.429C195.537 145.429 180.571 130.463 180.571 112C180.571 93.5371 195.537 78.5714 214 78.5714C232.463 78.5714 247.429 93.5371 247.429 112C247.429 130.463 232.463 145.429 214 145.429Z" fill="#0891b2"/>
<path d="M334.17 123.623C348.078 119.766 358.319 106.909 358.421 91.6857C358.421 91.5829 358.421 91.5314 358.421 91.4286C358.421 91.3257 358.421 91.2743 358.421 91.1714C358.268 72.8114 343.493 58 325.305 58H282V77.44L298.303 104.234H282.051V166H302.43V124.806H310.989L336.039 166H360L334.17 123.623ZM325.356 104.286H322.35L306.607 78.5714H325.356C332.387 78.5714 338.093 84.3314 338.093 91.4286C338.093 98.5257 332.387 104.286 325.356 104.286Z" fill="#0891b2"/>
<path d="M394.1 166H371L398.104 112.051L371 58H394.1L409.551 89.0629L425.413 58H448L394.1 166Z" fill="#0891b2"/>
</svg>
